<svg xmlns="http://www.w3.org/2000/svg" width="32" height="32"><path fill="#292c37" d="M0 0h32v32H0Z"/><path fill="none" stroke="#cdf0ff" stroke-width="1.333" d="M7.26 24.74c-2.984-2.983-1.49-9.315 3.338-14.142C15.425 5.77 21.757 4.276 24.74 7.259s1.489 9.316-3.339 14.143c-4.827 4.828-11.159 6.322-14.143 3.339Z"/><path fill="none" stroke="#fae5ff" stroke-width="1.333" d="M24.74 24.74c-2.983 2.984-9.315 1.49-14.142-3.338C5.77 16.575 4.276 10.243 7.259 7.26s9.316-1.489 14.143 3.339c4.828 4.827 6.322 11.159 3.339 14.143Z"/><path fill="#e5ebfa" d="M15.382 12.248h1.31v1.31h-1.31zm.445 6.02h-.445v-1.31h1.31v1.174l-.754 1.62h-.63z"/></svg>