<svg xmlns="http://www.w3.org/2000/svg" width="32" height="32"><path fill="#292c37" d="M0 0h32v32H0Z"/><path fill="none" stroke="#cdf0ff" stroke-width=".6235977" d="M10.468 21.532C5.39 16.454 3.808 9.806 6.932 6.682c3.125-3.126 9.774-1.543 14.85 3.535 5.078 5.077 6.661 11.726 3.537 14.85-3.125 3.125-9.774 1.542-14.851-3.535Z"/><path fill="none" stroke="#fae5ff" stroke-width=".6235977" d="M10.342 10.342c5.078-5.077 11.726-6.66 14.85-3.535 3.126 3.124 1.543 9.773-3.535 14.85-5.077 5.078-11.726 6.66-14.85 3.536-3.125-3.125-1.542-9.773 3.535-14.85Z"/><path fill="#e5ebfa" d="M15.402 12.357h1.272v1.272h-1.272zm.432 5.844h-.432V16.93h1.272v1.14l-.732 1.572h-.612z"/></svg>