<svg xmlns="http://www.w3.org/2000/svg" width="32" height="32" viewBox="0 0 8.467 8.467"><path d="M0 0h8.467v8.467H0z" style="fill:#191919;fill-opacity:1;stroke:none;stroke-width:2.90145;stroke-opacity:0"/><ellipse cx="-.047" cy="-5.987" rx="2.117" ry="3.44" style="fill:none;stroke:#5bcefa;stroke-width:.165365;stroke-miterlimit:4;stroke-dasharray:none;stroke-opacity:1;paint-order:normal" transform="rotate(135)"/><ellipse cx="-5.987" rx="2.117" ry="3.44" style="fill:none;stroke:#f5a9b8;stroke-width:.165365;stroke-miterlimit:4;stroke-dasharray:none;stroke-opacity:1;paint-order:normal" transform="rotate(-135)"/><g style="font-size:2.82222px;font-family:&quot;Liberation Serif&quot;;-inkscape-font-specification:&quot;Liberation Serif, Normal&quot;;fill:#e9e9e9;fill-opacity:1;stroke:#e9e9e9;stroke-width:.0992187;stroke-opacity:1"><path d="M4.432 3.52q0 .071-.048.12-.049.048-.118.048-.07 0-.118-.049-.048-.048-.048-.118 0-.068.047-.117.048-.05.12-.05.07 0 .117.05.048.05.048.117zm.012 1.09q0 .19-.11.316-.109.129-.312.187v-.107q.244-.077.244-.231 0-.029-.022-.051-.022-.022-.071-.047-.094-.047-.094-.136 0-.075.047-.113.048-.04.12-.04.088 0 .143.063.055.062.055.16z" aria-label=";" style="fill:#e9e9e9;fill-opacity:1;stroke:#e9e9e9;stroke-opacity:1" transform="translate(0 -.008)"/></g></svg>