<svg xmlns="http://www.w3.org/2000/svg" width="32" height="32" viewBox="0 0 8.467 8.467"><path fill="#191919" d="M0 0h8.467v8.467H0z"/><ellipse cx="-.047" cy="-5.987" fill="none" stroke="#5bcefa" stroke-width=".165" rx="2.117" ry="3.44" transform="rotate(135)"/><ellipse cx="-5.987" fill="none" stroke="#f5a9b8" stroke-width=".165" rx="2.117" ry="3.44" transform="rotate(225)"/><path fill="#e9e9e9" stroke="#e9e9e9" stroke-width=".099" d="M4.432 3.513q0 .07-.048.118-.049.049-.118.049-.07 0-.118-.049-.048-.048-.048-.118 0-.068.047-.117.048-.05.12-.05.07 0 .117.05.048.05.048.117zm.012 1.09q0 .189-.11.315-.109.129-.311.186v-.106q.243-.077.243-.231 0-.03-.022-.051-.022-.022-.071-.047-.094-.047-.094-.136 0-.075.047-.113.048-.04.12-.04.088 0 .143.063.055.062.055.16z" aria-label=";"/></svg>