<svg xmlns="http://www.w3.org/2000/svg" width="140" height="140"><path fill="#fff3eb" d="M0 0h140v140H0Z" paint-order="stroke"/><path fill="#1b1008" d="M84.85 22.547c-.002-.009.164.02.486.086.323.066.517.085 1.135.252s1.12.244 2.004.535 1.654.492 2.771.927 2.107.817 3.426 1.41 2.283 1.042 3.73 1.878 2.6 1.48 4.123 2.574 2.772 2.013 4.318 3.371 2.795 2.598 4.312 4.217c1.517 1.62 2.618 3.03 3.967 4.964s2.45 3.597 3.562 5.81 2.103 4.149 2.917 6.59a77 77 0 0 1 2.068 7.339c.59 2.581.8 5.012 1.01 7.706.21 2.693.059 5.243-.137 7.97-.197 2.727-.73 5.325-1.338 8.002-.607 2.677-1.515 5.252-2.516 7.796-1 2.544-2.287 5.017-3.642 7.354-1.354 2.338-3 4.626-4.651 6.696-1.65 2.071-3.604 4.112-5.482 5.87a57 57 0 0 1-6.098 4.935c-2.031 1.416-4.379 2.893-6.485 3.952a78 78 0 0 1-6.516 2.908c-2.068.803-4.571 1.578-6.576 2.04s-4.29.925-6.149 1.167c-1.859.24-4.027.446-5.696.497-1.67.051-3.446.032-4.89.005-1.445-.026-3.223-.23-4.412-.37a76 76 0 0 1-3.404-.491 62 62 0 0 1-2.565-.495c-.625-.134-1.103-.234-1.425-.297-.321-.064-.485-.092-.482-.08a.5.5 0 0 0 .093.154.8.8 0 0 0 .16.143 2 2 0 0 0 .136.09l.074.045q.039.02.079.043.04.02.081.043l.084.042q.043.02.086.042.044.02.088.042l.088.041q.045.02.088.042.046.02.088.042.045.019.087.041.044.02.086.042.042.02.083.042.041.02.08.043.04.02.078.043.037.02.073.044.035.021.068.044a1.5 1.5 0 0 1 .172.14 1 1 0 0 1 .08.098.5.5 0 0 1 .048.103.3.3 0 0 1 .01.054c-.003.017.139.068.417.153.28.084 1.005.25 1.554.37.55.121 1.528.348 2.334.475.805.127 2.028.347 3.073.453s2.496.258 3.76.32c1.264.06 2.923.09 4.386.085 1.462-.005 3.576-.164 5.207-.333a64 64 0 0 0 5.63-.872 69 69 0 0 0 5.925-1.526c1.854-.572 4.18-1.465 6.081-2.26 1.903-.796 4.407-2.064 6.264-3.176a78 78 0 0 0 5.872-3.902 56 56 0 0 0 5.664-4.844c1.645-1.628 3.47-3.652 4.98-5.468 1.51-1.817 3.14-4.247 4.38-6.29s2.614-4.598 3.537-6.813c.924-2.214 1.856-4.75 2.549-7.038s1.317-5.013 1.652-7.351.578-4.91.674-7.223a50.4 50.4 0 0 0-.233-7.154 72 72 0 0 0-1.05-6.718c-.44-2.12-1.055-4.384-1.76-6.322-.704-1.938-1.467-3.924-2.3-5.676a62 62 0 0 0-2.676-5.043 56 56 0 0 0-2.887-4.372c-.971-1.322-1.954-2.604-2.927-3.695a89 89 0 0 0-2.806-3.012c-.886-.903-1.74-1.735-2.543-2.412s-1.502-1.313-2.149-1.81c-.646-.497-1.195-.92-1.639-1.267s-.798-.598-1.032-.77q-.352-.26-.343-.28.013-.015.391.217c.25.154.627.393 1.088.724.46.332 1.027.744 1.692 1.23.664.486 1.44 1.103 2.228 1.812s1.694 1.504 2.599 2.406a86 86 0 0 1 2.87 3.028c.993 1.093 2.004 2.417 2.993 3.745.99 1.328 2.005 2.886 2.945 4.44s1.873 3.362 2.721 5.128 1.734 3.874 2.357 5.86 1.285 4.232 1.733 6.371.794 4.575 1.04 6.833.268 4.961.173 7.297-.399 4.977-.734 7.338-1.076 5.166-1.773 7.476-1.702 5.108-2.744 7.295a81 81 0 0 1-3.614 6.733c-1.25 2.064-3.041 4.506-4.564 6.342s-3.557 4.084-5.295 5.648c-1.738 1.563-3.867 3.338-5.694 4.689s-4.325 2.956-6.25 3.992c-1.926 1.035-4.313 2.198-6.232 3.005s-4.354 1.622-6.225 2.205-4.282 1.082-6.062 1.453c-1.78.37-4.109.605-5.756.783s-3.846.216-5.324.23c-1.477.013-3.515-.059-4.788-.174a87 87 0 0 1-3.83-.418 73 73 0 0 1-3.137-.516 63 63 0 0 1-2.398-.496c-.553-.135-.978-.237-1.265-.304a6 6 0 0 0-.44-.097c-.01.014.172.08.537.193s1.256.391 1.982.562c.726.17 1.967.495 3.036.68 1.069.187 2.649.468 4.037.634 1.39.166 3.629.413 5.316.441s4.2.08 6.144-.083c1.944-.162 4.674-.435 6.827-.832s5.02-1.096 7.33-1.76c2.309-.662 5.51-1.96 7.872-3.025s5.488-2.85 7.81-4.33c2.324-1.48 5.242-3.805 7.433-5.693s5.027-4.909 6.881-7.274 4.07-5.605 5.596-8.296c1.527-2.69 3.368-6.555 4.344-9.556.976-3.002 2.075-6.855 2.592-10.006.517-3.153.841-7.132.881-10.338.04-3.207-.369-7.391-.954-10.531s-1.628-6.877-2.648-9.865c-1.02-2.987-2.773-6.608-4.31-9.294-1.538-2.686-3.658-5.704-5.509-8.074s-4.484-5.083-6.67-6.979-4.886-4.003-7.212-5.484-5.165-3.077-7.537-4.127c-2.372-1.051-5.07-2.046-7.356-2.795-2.287-.748-5.068-1.354-7.23-1.715a70 70 0 0 0-6.518-.763c-1.951-.129-4.107-.122-5.798-.068s-3.552.212-4.944.39c-1.392.18-2.78.403-3.854.59s-2.122.435-2.857.594-1.435.347-1.813.439c-.378.091-.575.13-.58.11-.005-.018.183-.091.552-.216a28 28 0 0 1 1.796-.535c.728-.188 1.782-.468 2.85-.682a78 78 0 0 1 3.856-.668 54 54 0 0 1 4.976-.461c1.689-.075 3.89-.102 5.841.009 1.95.11 4.408.37 6.572.716 2.164.345 5.031.954 7.32 1.689s5.048 1.737 7.422 2.776c2.375 1.039 5.305 2.667 7.634 4.138 2.329 1.47 5.115 3.624 7.305 5.512s4.927 4.686 6.781 7.048 4.043 5.457 5.585 8.136c1.54 2.68 3.14 6.226 4.307 9.156 1.165 2.93 2.193 7.063 2.783 10.198s1.033 7.466.998 10.668-.35 7.297-.861 10.445c-.512 3.148-1.616 7.12-2.586 10.118s-2.846 7.022-4.365 9.71-3.778 6.043-5.624 8.408-4.609 5.197-6.697 7.19c-2.089 1.992-5.425 4.54-7.738 6.023s-5.529 3.36-7.881 4.43c-2.352 1.072-5.346 2.232-7.61 3.013-2.266.781-5.589 1.537-7.732 1.944-2.144.408-4.959.733-6.894.91-1.936.176-4.542.173-6.222.162s-4.024-.215-5.407-.36c-1.383-.146-3.018-.396-4.082-.56-1.065-.162-2.366-.455-3.09-.599s-1.68-.39-2.045-.473c-.364-.083-.547-.117-.536-.098.021.039.26.138.701.295.442.157 1.515.467 2.363.692.847.225 2.321.568 3.553.816 1.232.247 3.522.631 5.124.78s4.25.376 6.181.357 4.888-.115 7.102-.361 5.838-.787 8.25-1.424a100 100 0 0 0 8.289-2.622c2.563-.95 6.652-2.949 9.168-4.48s6.065-3.99 8.474-5.983c2.408-1.994 5.945-5.447 8.02-7.99 2.073-2.542 4.744-6.365 6.482-9.296 1.737-2.932 3.842-7.738 4.988-11.051s2.413-8.486 2.879-12.03c.465-3.545.748-8.883.5-12.49s-1.019-8.877-1.964-12.381c-.945-3.505-2.736-8.479-4.324-11.725-1.589-3.247-4.304-7.734-6.454-10.584-2.151-2.851-5.648-6.698-8.254-9.033-2.606-2.336-6.703-5.44-9.632-7.166-2.929-1.727-7.078-3.74-10.114-4.959s-7.754-2.554-10.82-3.109-7.316-1.051-10.245-1.136c-2.93-.084-6.977.135-9.676.459-2.699.323-6.42 1.093-8.812 1.742-2.39.648-5.73 1.776-7.756 2.654s-4.587 2.103-6.26 3.026a72 72 0 0 0-5.126 3.151c-1.308.895-3.078 2.18-4.023 2.969s-2.047 1.706-2.671 2.281l-1.426 1.313c-.323.297-.75.739-.75.739l3.124-2.906 3.01-2.445 3.147-2.265 3.61-2.27 3.419-1.836 3.52-1.635 3.61-1.43 4.08-1.294 3.773-.945 3.826-.723 4.274-.51 3.897-.21 3.907.022 4.322.302 3.88.543 3.842.774 3.792 1 3.729 1.22 4.036 1.642 3.536 1.704 3.427 1.911 3.658 2.36 3.14 2.349 2.994 2.53 2.839 2.7 2.934 3.2 2.457 3.049 2.276 3.186 2.284 3.69 1.84 3.459 1.637 3.56 1.56 4.061 1.158 3.75.94 3.815.715 3.866.488 4.354.197 3.937-.038 3.946-.34 4.398-.565 3.916-.796 3.878-1.026 3.827-1.427 4.199-1.522 3.661-1.735 3.564-1.944 3.454-2.429 3.707-2.385 3.16-2.566 3.014-3.074 3.176-2.94 2.644-3.088 2.469-3.226 2.285-3.77 2.298-3.499 1.844-3.6 1.64-4.143 1.557-3.791 1.155-3.855.934-4.385.759-3.955.416-3.977.182-3.985-.052-4.474-.378s11.286 1.533 15.363 1.067c2.818-.322 7.458-1.238 10.73-2.108s9.147-3.147 12.548-5c3.401-1.855 8.609-5.237 11.92-7.975s8.21-7.992 10.973-11.739 6.894-11.159 8.689-16.342 3.757-14.12 3.942-20.121-.943-15.882-2.846-21.797c-1.902-5.915-6.195-14.83-9.876-19.711s-10.718-12.013-15.824-15.377-13.34-7.332-18.446-8.801-12.71-2.618-16.585-2.726-8.441.238-8.766.278c-.326.04-2.345.239-4.571.583-2.226.345-6.605 1.348-9.71 2.286-3.106.939-8.336 3.189-11.772 4.981-3.435 1.793-8.918 5.607-11.983 8.275-3.064 2.668-7.37 7.361-9.987 10.723-2.618 3.36-6.06 9.648-7.775 13.548S4.896 55.57 4.228 59.579c-.669 4.008-1.175 10.312-1.07 13.982.106 3.67.844 9.643 1.606 13.029s2.515 8.936 3.793 11.866c1.277 2.93 3.562 7.302 5.058 9.725 1.497 2.423 4.257 6.115 5.813 7.977 1.556 1.861 4.036 4.387 5.41 5.743 5.686 3.988 4.29 2.321 9.515 4.32 7.589 2.981 17.616-.241 19.336-3.581s-.508-12.354-9.662-21.468c-1.385-1.271-1.98-1.75-3.576-3.523s-1.993-2.18-3.57-4.533C35.301 90.763 34.813 89.9 33.412 87s-1.572-3.547-2.488-6.973c-.917-3.426-1.022-4.346-1.289-8.15s-.356-4.47.394-8.81c.751-4.341.765-5.52 2.7-9.868 1.934-4.348 2.477-5.748 5.48-9.59 3.004-3.84 4.163-5.002 7.896-7.95 3.732-2.947 4.713-3.635 9.059-5.409 4.345-1.773 5.737-2.407 9.73-3.012s5.398-.868 8.304-.746c2.907.121 3.978.177 4.213.206.236.03 1.073.028 3.249.399s3.51.47 6.763 1.546c3.251 1.075 5.045 1.662 8.783 3.797s5.639 3.463 9.097 6.772c3.46 3.31 5.215 5.28 7.801 9.79s4.04 7.43 5.285 12.675c1.244 5.246 1.817 8.823 1.48 14.176-.338 5.354-1.094 9.282-2.679 14.148-1.584 4.867-3.353 8.323-6.196 12.355-2.844 4.033-5.592 7.068-9.083 10.095-3.49 3.027-6.843 5.14-10.556 7.051q.368-.052.99-.238c.415-.124.85-.275 1.413-.51s1.162-.465 1.854-.82 1.423-.693 2.226-1.172c.802-.48 1.633-.952 2.524-1.56a58 58 0 0 0 2.751-1.972c.962-.74 1.891-1.528 2.904-2.398s1.896-1.783 2.891-2.832 1.916-2.05 2.86-3.274a88 88 0 0 0 2.76-3.792c.928-1.342 1.642-2.672 2.464-4.169s1.451-2.92 2.141-4.553 1.206-3.138 1.74-4.883a50 50 0 0 0 1.278-5.145c.36-1.83.588-3.442.762-5.33s.222-3.517.206-5.43-.16-3.529-.368-5.437c-.207-1.908-.54-3.477-.934-5.35-.393-1.873-.905-3.363-1.472-5.173-.568-1.81-1.097-3.05-1.906-4.733-.81-1.684-1.438-3.004-2.384-4.569-.945-1.564-1.672-2.752-2.732-4.177-1.059-1.426-1.844-2.474-2.992-3.745s-1.948-2.185-3.157-3.288a90 90 0 0 0-3.427-2.977c-1.194-.99-2.033-1.533-3.236-2.346s-1.92-1.294-3.101-1.934c-1.18-.64-2.063-1.118-3.163-1.647-1.1-.53-1.902-.87-2.903-1.295s-1.69-.652-2.575-.98c-.884-.328-1.435-.474-2.184-.715-.749-.24-1.14-.342-1.736-.508"/><path fill="#1b1008" d="M72.04 94.356H67v-14.84h14.84v13.3l-8.54 18.34h-7.14ZM66.916 46.524h14.84v14.84h-14.84Z" paint-order="stroke"/></svg>